<svg xmlns="http://www.w3.org/2000/svg" viewBox="0 0 60 60">
  <circle cx="30" cy="30" r="26" fill="#e09a12" stroke="#2b3145" stroke-width="3"/>
  <circle cx="28" cy="28" r="22" fill="#ffd34d" stroke="#2b3145" stroke-width="2.5"/>
  <path fill="#e0a821" d="M28 12l3 6a12 12 0 0 1 5 2l7-1 3 5-5 5a12 12 0 0 1 0 5l5 5-3 5-7-1a12 12 0 0 1-5 2l-3 6-3-6a12 12 0 0 1-5-2l-7 1-3-5 5-5a12 12 0 0 1 0-5l-5-5 3-5 7 1a12 12 0 0 1 5-2Z"/>
  <circle cx="28" cy="28" r="5" fill="#ffd34d"/>
  <path d="M14 17a20 20 0 0 1 10-6" stroke="#fff3c4" stroke-width="4" fill="none" stroke-linecap="round"/>
</svg>
