<svg xmlns="http://www.w3.org/2000/svg" viewBox="0 0 280 240">
  <rect x="4" y="4" width="272" height="232" rx="10" fill="#46536e" stroke="#2b3145" stroke-width="4"/>
  <rect x="22" y="20" width="236" height="200" fill="#333a4e" stroke="#2b3145" stroke-width="3"/>
  <g stroke="#2b3145" stroke-width="3">
    <rect x="22" y="20" width="236" height="30" fill="#59627d"/>
    <rect x="22" y="52" width="236" height="30" fill="#525b75"/>
    <rect x="22" y="84" width="236" height="30" fill="#59627d"/>
    <rect x="22" y="116" width="236" height="30" fill="#525b75"/>
    <rect x="22" y="148" width="236" height="30" fill="#59627d"/>
  </g>
  <path d="M30 24h220v7H30Z" fill="#8fa0bf" opacity=".6"/>
  <rect x="22" y="178" width="236" height="42" fill="#252c3f"/>
  <circle cx="252" cy="14" r="7" fill="#ffcb44" stroke="#2b3145" stroke-width="2.5"/>
  <g fill="#ffcb44">
    <path d="M34 222h24l-10 14H24Z"/><path d="M82 222h24l-10 14H72Z"/><path d="M130 222h24l-10 14h-24Z"/><path d="M178 222h24l-10 14h-24Z"/><path d="M226 222h24l-10 14h-24Z"/>
  </g>
</svg>
