<svg xmlns="http://www.w3.org/2000/svg" viewBox="0 0 72 58">
  <!-- wooden toy car, facing right -->
  <g stroke="#2b3145" stroke-width="3" stroke-linejoin="round">
    <path d="M6 42V30c0-5 3-8 8-8h6l6-12h18c4 0 7 2 9 5l5 7h4c5 0 8 3 8 8v12c0 3-2 5-5 5H11c-3 0-5-2-5-5Z" fill="#d99e5e"/>
    <path d="M28 10h14c4 0 7 2 9 5l4 7H22Z" fill="#ecbe89"/>
    <path d="M26 13h10v9H22Z" fill="#bfe4f5" stroke-width="2.5"/>
    <circle cx="20" cy="45" r="9" fill="#8a5a2c"/>
    <circle cx="52" cy="45" r="9" fill="#8a5a2c"/>
  </g>
  <circle cx="20" cy="45" r="3.5" fill="#ecbe89"/>
  <circle cx="52" cy="45" r="3.5" fill="#ecbe89"/>
  <path d="M10 33h50" stroke="#a96f3a" stroke-width="3" stroke-linecap="round"/>
  <circle cx="66" cy="36" r="3" fill="#ffe9a8" stroke="#2b3145" stroke-width="2"/>
</svg>
