<svg xmlns="http://www.w3.org/2000/svg" viewBox="0 0 64 58">
  <rect x="4" y="10" width="56" height="44" rx="5" fill="#dfa967" stroke="#2b3145" stroke-width="3"/>
  <path d="M4 24h56" stroke="#b47e3e" stroke-width="2.5"/>
  <path d="M4 15c0-3 2-5 5-5h22v14H4Z" fill="#eebd7e" stroke="#2b3145" stroke-width="3"/>
  <path d="M33 10h22c3 0 5 2 5 5v9H33Z" fill="#c9924f" stroke="#2b3145" stroke-width="3"/>
  <rect x="27" y="10" width="10" height="44" fill="#f0e6cf" stroke="#2b3145" stroke-width="2.5"/>
  <circle cx="48" cy="40" r="7" fill="#f4f7fc" stroke="#2b3145" stroke-width="2.5"/>
  <path fill="#e0932b" d="M48 35l1.2 2.4 2.8.4-2 2 .5 2.7-2.5-1.3-2.5 1.3.5-2.7-2-2 2.8-.4Z"/>
  <path d="M10 34h12M10 40h9" stroke="#b47e3e" stroke-width="2.5" stroke-linecap="round"/>
</svg>
