<svg xmlns="http://www.w3.org/2000/svg" viewBox="0 0 110 110">
  <defs>
    <radialGradient id="bl" cx=".38" cy=".34" r=".8">
      <stop offset="0" stop-color="#eef2fa"/><stop offset=".6" stop-color="#c2cde2"/><stop offset="1" stop-color="#8b9cba"/>
    </radialGradient>
  </defs>
  <g stroke="#2b3145" stroke-width="3" stroke-linejoin="round">
    <path fill="url(#bl)" d="M55 7l7 10 11-6 2 12 12-2-3 12 12 3-8 9 10 7-11 6 6 11-12 2 2 12-12-3-3 12-9-8-7 10-6-11-11 6-2-12-12 2 3-12-12-3 8-9-10-7 11-6-6-11 12-2-2-12 12 3 3-12 9 8Z"/>
    <circle cx="55" cy="55" r="30" fill="none" stroke-opacity=".25"/>
    <circle cx="55" cy="55" r="11" fill="#5d6d8c"/>
    <circle cx="55" cy="55" r="4.5" fill="#2b3145"/>
    <circle cx="55" cy="38" r="3" fill="#8b9cba"/>
  </g>
</svg>
