<svg xmlns="http://www.w3.org/2000/svg" viewBox="0 0 320 130">
  <rect x="8" y="8" width="304" height="106" rx="18" fill="#334066" stroke="#2b3145" stroke-width="4"/>
  <rect x="20" y="20" width="280" height="82" rx="12" fill="#4a5a8c" stroke="#2b3145" stroke-width="3"/>
  <g fill="#ffcb44" stroke="#2b3145" stroke-width="2">
    <circle cx="24" cy="24" r="5"/><circle cx="296" cy="24" r="5"/><circle cx="24" cy="98" r="5"/><circle cx="296" cy="98" r="5"/>
    <circle cx="160" cy="16" r="5"/><circle cx="88" cy="16" r="5"/><circle cx="232" cy="16" r="5"/>
  </g>
  <circle cx="96" cy="61" r="28" fill="#ffcb44" stroke="#2b3145" stroke-width="3.5"/>
  <path fill="#e0932b" d="M96 39l4 8a15 15 0 0 1 6 3l9-2 4 7-6 6a15 15 0 0 1 0 6l6 6-4 7-9-2a15 15 0 0 1-6 3l-4 8-4-8a15 15 0 0 1-6-3l-9 2-4-7 6-6a15 15 0 0 1 0-6l-6-6 4-7 9 2a15 15 0 0 1 6-3Z"/>
  <circle cx="96" cy="61" r="7" fill="#ffcb44"/>
  <g stroke="#9fb0dd" stroke-width="8" stroke-linecap="round">
    <path d="M148 48h124M148 66h96M148 84h112"/>
  </g>
</svg>
