<svg xmlns="http://www.w3.org/2000/svg" viewBox="0 0 62 60">
  <circle cx="30" cy="34" r="20" fill="#f7d1ac" stroke="#2b3145" stroke-width="3"/>
  <path d="M14 40a20 20 0 0 1-2-12l10 2Z" fill="#e5b98d"/>
  <circle cx="13" cy="36" r="5" fill="#f7d1ac" stroke="#2b3145" stroke-width="2.5"/>
  <circle cx="40" cy="32" r="2.8" fill="#2b3145"/>
  <path d="M49 38c3 1 4 4 2 6" fill="none" stroke="#e5b98d" stroke-width="3" stroke-linecap="round"/>
  <path d="M36 45c3 2 7 2 9-1" fill="none" stroke="#2b3145" stroke-width="2.5" stroke-linecap="round"/>
  <path d="M8 26C9 12 20 4 31 4s22 8 23 22Z" fill="#ff8a5c" stroke="#2b3145" stroke-width="3" stroke-linejoin="round"/>
  <path d="M4 26h54a4 4 0 0 1 0 8H8a4 4 0 0 1-4-8Z" fill="#ff8a5c" stroke="#2b3145" stroke-width="3"/>
  <path d="M26 6c-8 2-13 9-14 18h6c1-8 4-14 8-18Z" fill="#ffb894"/>
  <rect x="27" y="4" width="8" height="22" rx="4" fill="#d96a3e"/>
</svg>
