<svg xmlns="http://www.w3.org/2000/svg" viewBox="0 0 70 90">
  <rect x="28" y="2" width="14" height="12" fill="#e8b184" stroke="#2b3145" stroke-width="3"/>
  <path d="M18 12h34c6 0 10 4 11 10l4 44c1 8-4 14-12 14H15c-8 0-13-6-12-14l4-44c1-6 5-10 11-10Z" fill="#3f9e68" stroke="#2b3145" stroke-width="3.5" stroke-linejoin="round"/>
  <path d="M22 12h8v66H16c-6 0-9-4-8-10l4-46c1-6 5-10 10-10Z" fill="#ffcb44" stroke="#2b3145" stroke-width="3"/>
  <path d="M40 12h8c5 0 9 4 10 10l4 46c1 6-2 10-8 10H40Z" fill="#ffcb44" stroke="#2b3145" stroke-width="3"/>
  <rect x="12" y="44" width="18" height="8" fill="#8a8fa3" stroke="#2b3145" stroke-width="2"/>
  <rect x="40" y="44" width="18" height="8" fill="#8a8fa3" stroke="#2b3145" stroke-width="2"/>
  <path d="M35 14v62" stroke="#2b3145" stroke-width="2.5" stroke-dasharray="4 3"/>
  <rect x="6" y="74" width="58" height="12" rx="5" fill="#333a4e" stroke="#2b3145" stroke-width="3"/>
  <rect x="29" y="76" width="12" height="8" rx="2" fill="#c8d2e0" stroke="#2b3145" stroke-width="2"/>
</svg>
